<svg width="17" height="12" viewBox="0 0 17 12" fill="none" xmlns="http://www.w3.org/2000/svg">
<path d="M16.9567 0.732354C16.8206 0.38955 16.545 0.177635 16.0734 0.0560958C15.8676 0.00311709 15.4624 6.75885e-07 8.50237 3.7165e-07C1.54895 6.77068e-08 1.13387 0.00311645 0.931311 0.0560952C0.639094 0.130889 0.45978 0.221264 0.287106 0.377084C-0.10805 0.732353 -0.0947675 1.40549 0.323633 2.05994C0.542795 2.39963 6.84537 11.0476 7.05125 11.2876C7.49622 11.808 8.13378 12.0729 8.74478 11.9825C9.19639 11.9202 9.67124 11.6429 9.97342 11.272C10.2856 10.8856 16.618 2.18148 16.7442 1.96333C16.9302 1.63299 17.0032 1.38991 16.9999 1.09074C16.9999 0.953618 16.98 0.791566 16.9567 0.732354Z" fill="#36AAE1"/>
</svg>
