<svg width="17" height="12" viewBox="0 0 17 12" fill="none" xmlns="http://www.w3.org/2000/svg">
<path d="M16.9567 11.2676C16.8206 11.6104 16.545 11.8224 16.0734 11.9439C15.8676 11.9969 15.4624 12 8.50237 12C1.54895 12 1.13387 11.9969 0.931311 11.9439C0.639094 11.8691 0.45978 11.7787 0.287106 11.6229C-0.10805 11.2676 -0.0947675 10.5945 0.323633 9.94006C0.542795 9.60037 6.84537 0.952373 7.05125 0.712411C7.49622 0.191972 8.13378 -0.0729217 8.74478 0.0174538C9.19639 0.0797817 9.67124 0.357141 9.97342 0.727993C10.2856 1.11443 16.618 9.81852 16.7442 10.0367C16.9302 10.367 17.0032 10.6101 16.9999 10.9093C16.9999 11.0464 16.98 11.2084 16.9567 11.2676Z" fill="#36AAE1"/>
</svg>
