<svg width="20" height="20" viewBox="0 0 20 20" fill="none" xmlns="http://www.w3.org/2000/svg">
<path d="M17.5176 19.9663C18.103 19.868 18.6838 19.5636 19.1241 19.1235C19.4848 18.7629 19.6909 18.4305 19.8689 17.9341L20 17.5595V9.99721V2.43492L19.8735 2.07905C19.5176 1.07698 18.8103 0.398015 17.7939 0.0842856C17.5316 0.00468253 17.1569 0 10 0C2.84309 0 2.46839 0.00468253 2.20141 0.0842856C1.16159 0.402698 0.407495 1.16127 0.0843105 2.20547C0.00468445 2.4677 0 2.8423 0 9.99721C0 17.1521 0.00468445 17.5267 0.0843105 17.7889C0.398129 18.8004 1.08197 19.5168 2.06089 19.8633L2.4356 19.9944L9.85949 19.9991C13.9438 20.0038 17.3864 19.9897 17.5176 19.9663ZM4.74005 10.929C4.52459 10.8682 4.22951 10.6153 4.12646 10.3999C4.0281 10.1939 4.0281 9.80054 4.12646 9.59451C4.22951 9.37912 4.52459 9.12626 4.74005 9.06539C4.98829 8.99515 15.0117 8.99515 15.26 9.06539C15.4754 9.12626 15.7705 9.37912 15.8735 9.59451C15.9672 9.79586 15.9719 10.1939 15.8782 10.3905C15.7752 10.6059 15.5222 10.8354 15.3115 10.9103C15.1616 10.9665 14.2436 10.9759 10.0234 10.9805C6.56206 10.9805 4.86183 10.9618 4.74005 10.929Z" fill="#36AAE1"/>
</svg>
