<svg width="20" height="20" viewBox="0 0 20 20" fill="none" xmlns="http://www.w3.org/2000/svg">
<path d="M1.375 18.6211C0.621094 17.8672 0 17.2266 0 17.207C0 17.1875 1.61328 15.5547 3.58203 13.5859L7.16797 10L3.58203 6.41406C1.61328 4.44531 0 2.8125 0 2.79297C0 2.74219 2.74219 0 2.79297 0C2.8125 0 4.44531 1.61328 6.41406 3.58203L10 7.16797L13.5859 3.58203C15.5547 1.61328 17.1875 0 17.207 0C17.2578 0 20 2.74219 20 2.79297C20 2.8125 18.3867 4.44531 16.418 6.41406L12.832 10L16.418 13.5859C18.3867 15.5547 20 17.1875 20 17.207C20 17.2578 17.2578 20 17.207 20C17.1875 20 15.5547 18.3867 13.5859 16.418L10 12.832L6.41406 16.418C4.44531 18.3867 2.8125 20 2.79297 20C2.76953 20 2.13281 19.3789 1.375 18.6211Z" fill="#36AAE1"/>
</svg>
