<svg width="425" height="586" viewBox="0 0 425 586" fill="none" xmlns="http://www.w3.org/2000/svg">
<mask id="path-1-inside-1_33_271" fill="white">
<path fill-rule="evenodd" clip-rule="evenodd" d="M163.01 0H25C11.1929 0 0 11.1929 0 25V561C0 574.807 11.1929 586 25 586H400C413.807 586 425 574.807 425 561V25C425 11.1929 413.807 0 400 0H262.99C262.458 27.1527 240.28 49 213 49C185.72 49 163.542 27.1527 163.01 0Z"/>
</mask>
<path fill-rule="evenodd" clip-rule="evenodd" d="M163.01 0H25C11.1929 0 0 11.1929 0 25V561C0 574.807 11.1929 586 25 586H400C413.807 586 425 574.807 425 561V25C425 11.1929 413.807 0 400 0H262.99C262.458 27.1527 240.28 49 213 49C185.72 49 163.542 27.1527 163.01 0Z" fill="#0E0A1C"/>
<path d="M163.01 0L164.01 -0.0196138L163.99 -1H163.01V0ZM262.99 0V-1H262.01L261.99 -0.0196132L262.99 0ZM25 1H163.01V-1H25V1ZM1 25C1 11.7452 11.7452 1 25 1V-1C10.6406 -1 -1 10.6406 -1 25H1ZM1 561V25H-1V561H1ZM25 585C11.7452 585 1 574.255 1 561H-1C-1 575.359 10.6406 587 25 587V585ZM400 585H25V587H400V585ZM424 561C424 574.255 413.255 585 400 585V587C414.359 587 426 575.359 426 561H424ZM424 25V561H426V25H424ZM400 1C413.255 1 424 11.7452 424 25H426C426 10.6406 414.359 -1 400 -1V1ZM262.99 1H400V-1H262.99V1ZM261.99 -0.0196132C261.468 26.5896 239.734 48 213 48V50C240.826 50 263.447 27.7157 263.99 0.0196132L261.99 -0.0196132ZM213 48C186.266 48 164.532 26.5896 164.01 -0.0196138L162.01 0.0196138C162.553 27.7157 185.174 50 213 50V48Z" fill="url(#paint0_linear_33_271)" mask="url(#path-1-inside-1_33_271)"/>
<defs>
<linearGradient id="paint0_linear_33_271" x1="1.01696e-06" y1="73.9218" x2="525.333" y2="497.206" gradientUnits="userSpaceOnUse">
<stop stop-color="#6E44D9"/>
<stop offset="1" stop-color="#1876C5"/>
</linearGradient>
</defs>
</svg>
