<svg width="168" height="42" viewBox="0 0 168 42" fill="none" xmlns="http://www.w3.org/2000/svg">
<g clip-path="url(#clip0_33_727)">
<path d="M49.2773 29.452H61.2293V25.852H53.5253V12.292H49.2773V29.452Z" fill="white"/>
<path d="M68.3108 27.0521C66.6068 27.0521 65.7188 25.5641 65.7188 23.3321C65.7188 21.1001 66.6068 19.5881 68.3108 19.5881C70.0148 19.5881 70.9268 21.1001 70.9268 23.3321C70.9268 25.5641 70.0148 27.0521 68.3108 27.0521ZM68.3348 29.8361C72.2948 29.8361 74.8868 27.0281 74.8868 23.3321C74.8868 19.6361 72.2948 16.8281 68.3348 16.8281C64.3988 16.8281 61.7588 19.6361 61.7588 23.3321C61.7588 27.0281 64.3988 29.8361 68.3348 29.8361Z" fill="white"/>
<path d="M81.7411 33.7007C83.5651 33.7007 85.1731 33.2927 86.2531 32.3327C87.2371 31.4447 87.8851 30.1007 87.8851 28.2527V17.1647H84.1411V18.4847H84.0931C83.3731 17.4527 82.2691 16.8047 80.6371 16.8047C77.5891 16.8047 75.4771 19.3487 75.4771 22.9487C75.4771 26.7167 78.0451 28.7807 80.8051 28.7807C82.2931 28.7807 83.2291 28.1807 83.9491 27.3647H84.0451V28.5887C84.0451 30.0767 83.3491 30.9407 81.6931 30.9407C80.3971 30.9407 79.7491 30.3887 79.5331 29.7407H75.7411C76.1251 32.3087 78.3571 33.7007 81.7411 33.7007ZM81.7171 25.8767C80.2531 25.8767 79.2931 24.6767 79.2931 22.8287C79.2931 20.9567 80.2531 19.7567 81.7171 19.7567C83.3491 19.7567 84.2131 21.1487 84.2131 22.8047C84.2131 24.5327 83.4211 25.8767 81.7171 25.8767Z" fill="white"/>
<path d="M95.5835 27.0521C93.8795 27.0521 92.9915 25.5641 92.9915 23.3321C92.9915 21.1001 93.8795 19.5881 95.5835 19.5881C97.2875 19.5881 98.1995 21.1001 98.1995 23.3321C98.1995 25.5641 97.2875 27.0521 95.5835 27.0521ZM95.6075 29.8361C99.5675 29.8361 102.159 27.0281 102.159 23.3321C102.159 19.6361 99.5675 16.8281 95.6075 16.8281C91.6715 16.8281 89.0315 19.6361 89.0315 23.3321C89.0315 27.0281 91.6715 29.8361 95.6075 29.8361Z" fill="white"/>
<path d="M103.302 29.452H107.214V17.164H103.302V29.452ZM103.302 15.46H107.214V12.292H103.302V15.46Z" fill="white"/>
<path d="M108.911 33.5087H112.823V28.1807H112.871C113.639 29.2127 114.767 29.8367 116.351 29.8367C119.567 29.8367 121.703 27.2927 121.703 23.3087C121.703 19.6127 119.711 16.8047 116.447 16.8047C114.767 16.8047 113.567 17.5487 112.727 18.6527H112.655V17.1647H108.911V33.5087ZM115.343 26.8127C113.663 26.8127 112.703 25.4447 112.703 23.4527C112.703 21.4607 113.567 19.9487 115.271 19.9487C116.951 19.9487 117.743 21.3407 117.743 23.4527C117.743 25.5407 116.831 26.8127 115.343 26.8127Z" fill="white"/>
<path d="M128.072 29.8367C131.288 29.8367 133.664 28.4447 133.664 25.7567C133.664 22.6127 131.12 22.0607 128.96 21.7007C127.4 21.4127 126.008 21.2927 126.008 20.4287C126.008 19.6607 126.752 19.3007 127.712 19.3007C128.792 19.3007 129.536 19.6367 129.68 20.7407H133.28C133.088 18.3167 131.216 16.8047 127.736 16.8047C124.832 16.8047 122.432 18.1487 122.432 20.7407C122.432 23.6207 124.712 24.1967 126.848 24.5567C128.48 24.8447 129.968 24.9647 129.968 26.0687C129.968 26.8607 129.224 27.2927 128.048 27.2927C126.752 27.2927 125.936 26.6927 125.792 25.4687H122.096C122.216 28.1807 124.472 29.8367 128.072 29.8367Z" fill="white"/>
<path d="M138.978 29.8121C140.682 29.8121 141.762 29.1401 142.65 27.9401H142.722V29.4521H146.466V17.1641H142.554V24.0281C142.554 25.4921 141.738 26.5001 140.394 26.5001C139.146 26.5001 138.546 25.7561 138.546 24.4121V17.1641H134.658V25.2281C134.658 27.9641 136.146 29.8121 138.978 29.8121Z" fill="white"/>
<path d="M148.168 29.4527H152.08V22.5647C152.08 21.1007 152.8 20.0687 154.024 20.0687C155.2 20.0687 155.752 20.8367 155.752 22.1567V29.4527H159.664V22.5647C159.664 21.1007 160.36 20.0687 161.608 20.0687C162.784 20.0687 163.336 20.8367 163.336 22.1567V29.4527H167.248V21.4607C167.248 18.7007 165.856 16.8047 163.072 16.8047C161.488 16.8047 160.168 17.4767 159.208 18.9647H159.16C158.536 17.6447 157.312 16.8047 155.704 16.8047C153.928 16.8047 152.752 17.6447 151.984 18.9167H151.912V17.1647H148.168V29.4527Z" fill="white"/>
<path d="M25.4099 2.47671L21.4769 1.42285L18.1625 13.7924L15.1702 2.62509L11.2371 3.67895L14.4701 15.7444L6.41746 7.69183L3.53827 10.571L12.371 19.4038L1.37124 16.4564L0.317383 20.3894L12.336 23.6098C12.1984 23.0163 12.1256 22.3979 12.1256 21.7625C12.1256 17.2649 15.7716 13.6189 20.2692 13.6189C24.7668 13.6189 28.4128 17.2649 28.4128 21.7625C28.4128 22.3938 28.3409 23.0084 28.205 23.5984L39.1277 26.5251L40.1815 22.5921L28.1151 19.3589L39.1156 16.4113L38.0617 12.4783L25.9958 15.7113L34.0484 7.65877L31.1692 4.77958L22.459 13.4898L25.4099 2.47671Z" fill="white"/>
<path d="M28.1944 23.6445C27.8572 25.0701 27.1453 26.3508 26.1685 27.3769L34.0815 35.29L36.9607 32.4108L28.1944 23.6445Z" fill="white"/>
<path d="M26.0884 27.46C25.0998 28.4697 23.8505 29.2232 22.4495 29.6115L25.3289 40.3575L29.2619 39.3036L26.0884 27.46Z" fill="white"/>
<path d="M22.3026 29.6503C21.6526 29.8174 20.9713 29.9062 20.2692 29.9062C19.517 29.9062 18.7886 29.8042 18.0971 29.6133L15.2151 40.3691L19.1481 41.4229L22.3026 29.6503Z" fill="white"/>
<path d="M17.958 29.5739C16.5784 29.1663 15.3513 28.4032 14.3829 27.3906L6.45044 35.3231L9.32963 38.2023L17.958 29.5739Z" fill="white"/>
<path d="M14.3168 27.32C13.365 26.301 12.6717 25.0374 12.3417 23.6338L1.3833 26.5701L2.43715 30.5031L14.3168 27.32Z" fill="white"/>
</g>
<defs>
<clipPath id="clip0_33_727">
<rect width="168" height="41" fill="white" transform="translate(0 0.5)"/>
</clipPath>
</defs>
</svg>
