<svg width="171" height="42" viewBox="0 0 171 42" fill="none" xmlns="http://www.w3.org/2000/svg">
<g clip-path="url(#clip0_33_716)">
<path d="M52.3601 28.6375H64.3121V25.0375H56.6081V11.4775H52.3601V28.6375Z" fill="white"/>
<path d="M71.3932 26.2377C69.6892 26.2377 68.8012 24.7497 68.8012 22.5177C68.8012 20.2857 69.6892 18.7737 71.3932 18.7737C73.0972 18.7737 74.0092 20.2857 74.0092 22.5177C74.0092 24.7497 73.0972 26.2377 71.3932 26.2377ZM71.4172 29.0217C75.3772 29.0217 77.9692 26.2137 77.9692 22.5177C77.9692 18.8217 75.3772 16.0137 71.4172 16.0137C67.4812 16.0137 64.8412 18.8217 64.8412 22.5177C64.8412 26.2137 67.4812 29.0217 71.4172 29.0217Z" fill="white"/>
<path d="M84.8237 32.8862C86.6477 32.8862 88.2557 32.4782 89.3357 31.5182C90.3197 30.6302 90.9677 29.2862 90.9677 27.4382V16.3502H87.2237V17.6702H87.1757C86.4557 16.6382 85.3517 15.9902 83.7197 15.9902C80.6717 15.9902 78.5597 18.5342 78.5597 22.1342C78.5597 25.9022 81.1277 27.9662 83.8877 27.9662C85.3757 27.9662 86.3117 27.3662 87.0317 26.5502H87.1277V27.7742C87.1277 29.2622 86.4317 30.1262 84.7757 30.1262C83.4797 30.1262 82.8317 29.5742 82.6157 28.9262H78.8237C79.2077 31.4942 81.4397 32.8862 84.8237 32.8862ZM84.7997 25.0622C83.3357 25.0622 82.3757 23.8622 82.3757 22.0142C82.3757 20.1422 83.3357 18.9422 84.7997 18.9422C86.4317 18.9422 87.2957 20.3342 87.2957 21.9902C87.2957 23.7182 86.5037 25.0622 84.7997 25.0622Z" fill="white"/>
<path d="M98.666 26.2377C96.962 26.2377 96.074 24.7497 96.074 22.5177C96.074 20.2857 96.962 18.7737 98.666 18.7737C100.37 18.7737 101.282 20.2857 101.282 22.5177C101.282 24.7497 100.37 26.2377 98.666 26.2377ZM98.69 29.0217C102.65 29.0217 105.242 26.2137 105.242 22.5177C105.242 18.8217 102.65 16.0137 98.69 16.0137C94.754 16.0137 92.114 18.8217 92.114 22.5177C92.114 26.2137 94.754 29.0217 98.69 29.0217Z" fill="white"/>
<path d="M106.384 28.6375H110.296V16.3495H106.384V28.6375ZM106.384 14.6455H110.296V11.4775H106.384V14.6455Z" fill="white"/>
<path d="M111.994 32.6942H115.906V27.3662H115.954C116.722 28.3982 117.85 29.0222 119.434 29.0222C122.65 29.0222 124.786 26.4782 124.786 22.4942C124.786 18.7982 122.794 15.9902 119.53 15.9902C117.85 15.9902 116.65 16.7342 115.81 17.8382H115.738V16.3502H111.994V32.6942ZM118.426 25.9982C116.746 25.9982 115.786 24.6302 115.786 22.6382C115.786 20.6462 116.65 19.1342 118.354 19.1342C120.034 19.1342 120.826 20.5262 120.826 22.6382C120.826 24.7262 119.914 25.9982 118.426 25.9982Z" fill="white"/>
<path d="M131.155 29.0222C134.371 29.0222 136.747 27.6302 136.747 24.9422C136.747 21.7982 134.203 21.2462 132.043 20.8862C130.483 20.5982 129.091 20.4782 129.091 19.6142C129.091 18.8462 129.835 18.4862 130.795 18.4862C131.875 18.4862 132.619 18.8222 132.763 19.9262H136.363C136.171 17.5022 134.299 15.9902 130.819 15.9902C127.915 15.9902 125.515 17.3342 125.515 19.9262C125.515 22.8062 127.795 23.3822 129.931 23.7422C131.563 24.0302 133.051 24.1502 133.051 25.2542C133.051 26.0462 132.307 26.4782 131.131 26.4782C129.835 26.4782 129.019 25.8782 128.875 24.6542H125.179C125.299 27.3662 127.555 29.0222 131.155 29.0222Z" fill="white"/>
<path d="M142.061 28.9976C143.765 28.9976 144.845 28.3256 145.733 27.1256H145.805V28.6376H149.549V16.3496H145.637V23.2136C145.637 24.6776 144.821 25.6856 143.477 25.6856C142.229 25.6856 141.629 24.9416 141.629 23.5976V16.3496H137.741V24.4136C137.741 27.1496 139.229 28.9976 142.061 28.9976Z" fill="white"/>
<path d="M151.25 28.6382H155.162V21.7502C155.162 20.2862 155.882 19.2542 157.106 19.2542C158.282 19.2542 158.834 20.0222 158.834 21.3422V28.6382H162.746V21.7502C162.746 20.2862 163.442 19.2542 164.69 19.2542C165.866 19.2542 166.418 20.0222 166.418 21.3422V28.6382H170.33V20.6462C170.33 17.8862 168.938 15.9902 166.154 15.9902C164.57 15.9902 163.25 16.6622 162.29 18.1502H162.242C161.618 16.8302 160.394 15.9902 158.786 15.9902C157.01 15.9902 155.834 16.8302 155.066 18.1022H154.994V16.3502H151.25V28.6382Z" fill="white"/>
<path fill-rule="evenodd" clip-rule="evenodd" d="M21.1841 40.6377C32.2298 40.6377 41.1841 31.6834 41.1841 20.6377C41.1841 9.592 32.2298 0.637695 21.1841 0.637695C10.1384 0.637695 1.18408 9.592 1.18408 20.6377C1.18408 31.6834 10.1384 40.6377 21.1841 40.6377ZM27.4234 9.95453C27.7271 8.87574 26.6802 8.23782 25.7241 8.91899L12.3772 18.4273C11.3403 19.166 11.5034 20.6377 12.6222 20.6377H16.1368V20.6105H22.9866L17.4053 22.5798L14.9448 31.3209C14.6411 32.3997 15.6879 33.0376 16.6441 32.3564L29.991 22.8482C31.0279 22.1095 30.8647 20.6377 29.746 20.6377H24.4162L27.4234 9.95453Z" fill="white"/>
</g>
<defs>
<clipPath id="clip0_33_716">
<rect width="170" height="41" fill="white" transform="translate(0.5 0.5)"/>
</clipPath>
</defs>
</svg>
