<svg width="168" height="42" viewBox="0 0 168 42" fill="none" xmlns="http://www.w3.org/2000/svg">
<g clip-path="url(#clip0_33_694)">
<path d="M49.1307 29.2938H61.0827V25.6938H53.3787V12.1338H49.1307V29.2938Z" fill="white"/>
<path d="M68.1639 26.8939C66.4599 26.8939 65.5719 25.4059 65.5719 23.1739C65.5719 20.9419 66.4599 19.4299 68.1639 19.4299C69.8679 19.4299 70.7799 20.9419 70.7799 23.1739C70.7799 25.4059 69.8679 26.8939 68.1639 26.8939ZM68.1879 29.6779C72.1479 29.6779 74.7399 26.8699 74.7399 23.1739C74.7399 19.4779 72.1479 16.6699 68.1879 16.6699C64.2519 16.6699 61.6119 19.4779 61.6119 23.1739C61.6119 26.8699 64.2519 29.6779 68.1879 29.6779Z" fill="white"/>
<path d="M81.5943 33.5415C83.4183 33.5415 85.0263 33.1335 86.1063 32.1735C87.0903 31.2855 87.7383 29.9415 87.7383 28.0935V17.0055H83.9943V18.3255H83.9463C83.2263 17.2935 82.1223 16.6455 80.4903 16.6455C77.4423 16.6455 75.3303 19.1895 75.3303 22.7895C75.3303 26.5575 77.8983 28.6215 80.6583 28.6215C82.1463 28.6215 83.0823 28.0215 83.8023 27.2055H83.8983V28.4295C83.8983 29.9175 83.2023 30.7815 81.5463 30.7815C80.2503 30.7815 79.6023 30.2295 79.3863 29.5815H75.5943C75.9783 32.1495 78.2103 33.5415 81.5943 33.5415ZM81.5703 25.7175C80.1063 25.7175 79.1463 24.5175 79.1463 22.6695C79.1463 20.7975 80.1063 19.5975 81.5703 19.5975C83.2023 19.5975 84.0663 20.9895 84.0663 22.6455C84.0663 24.3735 83.2743 25.7175 81.5703 25.7175Z" fill="white"/>
<path d="M95.4366 26.8939C93.7326 26.8939 92.8447 25.4059 92.8447 23.1739C92.8447 20.9419 93.7326 19.4299 95.4366 19.4299C97.1406 19.4299 98.0526 20.9419 98.0526 23.1739C98.0526 25.4059 97.1406 26.8939 95.4366 26.8939ZM95.4606 29.6779C99.4206 29.6779 102.013 26.8699 102.013 23.1739C102.013 19.4779 99.4206 16.6699 95.4606 16.6699C91.5246 16.6699 88.8846 19.4779 88.8846 23.1739C88.8846 26.8699 91.5246 29.6779 95.4606 29.6779Z" fill="white"/>
<path d="M103.155 29.2938H107.067V17.0058H103.155V29.2938ZM103.155 15.3018H107.067V12.1338H103.155V15.3018Z" fill="white"/>
<path d="M108.764 33.3495H112.676V28.0215H112.724C113.492 29.0535 114.62 29.6775 116.204 29.6775C119.42 29.6775 121.556 27.1335 121.556 23.1495C121.556 19.4535 119.564 16.6455 116.3 16.6455C114.62 16.6455 113.42 17.3895 112.58 18.4935H112.508V17.0055H108.764V33.3495ZM115.196 26.6535C113.516 26.6535 112.556 25.2855 112.556 23.2935C112.556 21.3015 113.42 19.7895 115.124 19.7895C116.804 19.7895 117.596 21.1815 117.596 23.2935C117.596 25.3815 116.684 26.6535 115.196 26.6535Z" fill="white"/>
<path d="M127.926 29.6775C131.142 29.6775 133.518 28.2855 133.518 25.5975C133.518 22.4535 130.974 21.9015 128.814 21.5415C127.254 21.2535 125.862 21.1335 125.862 20.2695C125.862 19.5015 126.606 19.1415 127.566 19.1415C128.646 19.1415 129.39 19.4775 129.534 20.5815H133.134C132.942 18.1575 131.07 16.6455 127.59 16.6455C124.686 16.6455 122.286 17.9895 122.286 20.5815C122.286 23.4615 124.566 24.0375 126.702 24.3975C128.334 24.6855 129.822 24.8055 129.822 25.9095C129.822 26.7015 129.078 27.1335 127.902 27.1335C126.606 27.1335 125.79 26.5335 125.646 25.3095H121.95C122.07 28.0215 124.326 29.6775 127.926 29.6775Z" fill="white"/>
<path d="M138.831 29.6539C140.535 29.6539 141.615 28.9819 142.503 27.7819H142.575V29.2939H146.319V17.0059H142.407V23.8699C142.407 25.3339 141.591 26.3419 140.247 26.3419C138.999 26.3419 138.399 25.5979 138.399 24.2539V17.0059H134.511V25.0699C134.511 27.8059 135.999 29.6539 138.831 29.6539Z" fill="white"/>
<path d="M148.021 29.2935H151.933V22.4055C151.933 20.9415 152.653 19.9095 153.877 19.9095C155.053 19.9095 155.605 20.6775 155.605 21.9975V29.2935H159.517V22.4055C159.517 20.9415 160.213 19.9095 161.461 19.9095C162.637 19.9095 163.189 20.6775 163.189 21.9975V29.2935H167.101V21.3015C167.101 18.5415 165.709 16.6455 162.925 16.6455C161.341 16.6455 160.021 17.3175 159.061 18.8055H159.013C158.389 17.4855 157.165 16.6455 155.557 16.6455C153.781 16.6455 152.605 17.4855 151.837 18.7575H151.765V17.0055H148.021V29.2935Z" fill="white"/>
<path fill-rule="evenodd" clip-rule="evenodd" d="M9.15417 4.39181C7.72351 5.39217 6.42981 6.57492 5.30676 7.90634C9.89606 7.48027 15.7266 8.17599 22.4958 11.5606C29.7244 15.1748 35.5452 15.297 39.5962 14.5156C39.2286 13.4027 38.7658 12.3331 38.2177 11.3163C33.5804 11.8054 27.6354 11.158 20.707 7.69392C16.3074 5.49412 12.4292 4.58795 9.15417 4.39181ZM35.5088 7.46059C31.8467 3.36894 26.5248 0.793945 20.6014 0.793945C18.8619 0.793945 17.1741 1.01605 15.5651 1.43343C17.7443 2.02803 20.0593 2.89793 22.4958 4.11621C27.5684 6.65247 31.9478 7.4691 35.5088 7.46059ZM40.4623 18.422C35.5683 19.3884 28.8102 19.1899 20.707 15.1383C13.1314 11.3505 7.10187 11.3982 3.03534 12.3019C2.82544 12.3485 2.62048 12.3975 2.42047 12.4485C1.88806 13.6064 1.46307 14.824 1.15814 16.0884C1.48383 16.0014 1.82037 15.9187 2.1676 15.8415C7.10101 14.7452 14.0715 14.7928 22.4958 19.005C30.0715 22.7928 36.101 22.7451 40.1676 21.8414C40.3069 21.8105 40.4442 21.7785 40.5792 21.7455C40.594 21.4302 40.6014 21.1129 40.6014 20.7939C40.6014 19.9914 40.5542 19.1999 40.4623 18.422ZM39.9262 25.9662C35.0797 26.8135 28.5184 26.4883 20.707 22.5827C13.1314 18.7949 7.10187 18.8426 3.03534 19.7463C2.13269 19.9468 1.32068 20.1911 0.60437 20.449C0.602417 20.5637 0.60144 20.6787 0.60144 20.7939C0.60144 31.8396 9.55573 40.7939 20.6014 40.7939C29.8585 40.7939 37.6467 34.5048 39.9262 25.9662Z" fill="white"/>
</g>
<defs>
<clipPath id="clip0_33_694">
<rect width="167" height="41" fill="white" transform="translate(0.5 0.5)"/>
</clipPath>
</defs>
</svg>
